<?xml version="1.0" encoding="UTF-8" standalone="no"?>
<svg
   xmlns:dc="http://purl.org/dc/elements/1.1/"
   xmlns:cc="http://creativecommons.org/ns#"
   xmlns:rdf="http://www.w3.org/1999/02/22-rdf-syntax-ns#"
   xmlns:svg="http://www.w3.org/2000/svg"
   xmlns="http://www.w3.org/2000/svg"
   xmlns:sodipodi="http://sodipodi.sourceforge.net/DTD/sodipodi-0.dtd"
   xmlns:inkscape="http://www.inkscape.org/namespaces/inkscape"
   viewBox="0 0 24 30"
   x="0px"
   y="0px"
   version="1.1"
   id="svg5637"
   sodipodi:docname="insta2.svg"
   inkscape:export-filename="D:\WORK\work9\developer-kl.github.io-master\extras\insta2.png"
   inkscape:export-xdpi="355.76471"
   inkscape:export-ydpi="355.76471"
   inkscape:version="0.92.1 r15371">
  <metadata
     id="metadata5643">
    <rdf:RDF>
      <cc:Work
         rdf:about="">
        <dc:format>image/svg+xml</dc:format>
        <dc:type
           rdf:resource="http://purl.org/dc/dcmitype/StillImage" />
      </cc:Work>
    </rdf:RDF>
  </metadata>
  <defs
     id="defs5641" />
  <sodipodi:namedview
     pagecolor="#ffffff"
     bordercolor="#666666"
     borderopacity="1"
     objecttolerance="10"
     gridtolerance="10"
     guidetolerance="10"
     inkscape:pageopacity="0"
     inkscape:pageshadow="2"
     inkscape:window-width="1366"
     inkscape:window-height="705"
     id="namedview5639"
     showgrid="false"
     inkscape:zoom="7.8666667"
     inkscape:cx="12"
     inkscape:cy="15"
     inkscape:window-x="-8"
     inkscape:window-y="-8"
     inkscape:window-maximized="1"
     inkscape:current-layer="svg5637" />
  <title
     id="title5625">Iconsset_Lineicons</title>
  <path
     d="M16,3.5H8A4.5,4.5,0,0,0,3.5,8v8A4.5,4.5,0,0,0,8,20.5h8A4.5,4.5,0,0,0,20.5,16V8A4.5,4.5,0,0,0,16,3.5ZM19.5,16A3.5,3.5,0,0,1,16,19.5H8A3.5,3.5,0,0,1,4.5,16V8A3.5,3.5,0,0,1,8,4.5h8A3.5,3.5,0,0,1,19.5,8Z"
     id="path5627" />
  <path
     d="M12,8a4,4,0,1,0,4,4A4,4,0,0,0,12,8Zm0,7a3,3,0,1,1,3-3A3,3,0,0,1,12,15Z"
     id="path5629" />
  <path
     d="M16.5,6.5a1,1,0,1,0,1,1A1,1,0,0,0,16.5,6.5Zm0,1h0Z"
     id="path5631" />
</svg>
